<svg version="1.1" id="Layer_1" xmlns="http://www.w3.org/2000/svg" xmlns:xlink="http://www.w3.org/1999/xlink" x="0px" y="0px"
	 width="100%" viewBox="0 0 192 192" enable-background="new 0 0 192 192" xml:space="preserve">

<path fill="#687E30" opacity="1.000000" stroke="none" 
	d="
M28.955837,102.820030 
	C28.955837,102.820030 29.000238,102.407738 29.348900,102.050850 
	C33.278500,95.160370 37.032768,88.713531 40.365368,82.055634 
	C41.970028,78.849823 42.779724,75.246094 43.949406,71.822556 
	C43.949406,71.822556 43.995895,71.396416 44.202812,71.002182 
	C44.594742,70.345459 44.776276,70.080589 44.954330,69.813332 
	C44.954330,69.813332 45.000973,69.400810 45.350624,69.044250 
	C48.664944,63.386238 51.855862,58.195251 54.516766,52.745483 
	C56.369511,48.950897 57.494865,44.801151 58.945164,40.810066 
	C58.945164,40.810066 58.993832,40.389515 59.201057,39.997452 
	C59.592018,39.342396 59.774010,39.078197 59.954262,38.812798 
	C59.954262,38.812798 59.996243,38.391266 60.202385,37.998543 
	C60.592247,37.342468 60.774048,37.077797 60.953922,36.811802 
	C60.953922,36.811802 60.998932,36.399998 61.349167,36.044182 
	C64.381271,30.959002 67.212204,26.306059 69.690231,21.472202 
	C71.226677,18.475069 73.228325,16.884739 76.678978,16.975420 
	C81.489861,17.101847 86.346733,16.646893 91.101921,17.176729 
	C93.140732,17.403898 95.299576,19.176409 96.818428,20.795872 
	C98.798210,22.906809 100.196228,25.563374 101.913406,28.196461 
	C101.982231,28.407768 102.034637,28.849133 102.171082,29.034637 
	C102.479904,29.474361 102.661125,29.722113 102.918167,30.179871 
	C102.985153,30.396345 103.036102,30.846680 103.171783,31.032806 
	C103.478851,31.473940 103.659706,31.722036 103.915680,32.180565 
	C103.981331,32.397911 104.034149,32.848907 104.169739,33.037224 
	C104.477821,33.482727 104.662086,33.731174 104.922661,34.183819 
	C104.987198,34.396751 105.036713,34.838982 105.172119,35.029930 
	C105.479942,35.481430 105.665321,35.732407 105.926575,36.185921 
	C105.989464,36.398033 106.037247,36.837933 106.171494,37.028446 
	C106.476295,37.479076 106.659538,37.729919 106.918564,38.186699 
	C106.981644,38.401897 107.034698,38.847263 107.170219,39.036537 
	C107.478493,39.484043 107.663887,39.732853 107.925201,40.183678 
	C107.988487,40.395107 108.038895,40.833614 108.173233,41.026825 
	C108.478951,41.483360 108.664780,41.736061 108.925751,42.189743 
	C108.986458,42.401348 109.037315,42.838680 109.171921,43.031479 
	C109.478653,43.486866 109.665611,43.738430 109.928284,44.188217 
	C109.989174,44.397453 110.040245,44.830280 110.175125,45.026588 
	C110.483383,45.489681 110.673660,45.743805 110.939720,46.193047 
	C110.998596,46.400822 111.048103,46.829880 111.056488,47.228874 
	C113.328148,52.082573 115.591415,56.537270 117.921013,61.203316 
	C117.987343,61.414669 118.043968,61.854061 118.089043,62.170418 
	C118.710014,63.322880 119.285904,64.158981 119.925079,65.201950 
	C119.988365,65.408806 120.036690,65.838745 120.171890,66.029953 
	C120.479286,66.482018 120.664726,66.733109 120.926010,67.187180 
	C120.988625,67.399948 121.036140,67.840965 121.171425,68.031303 
	C121.478828,68.481461 121.663490,68.732025 121.924461,69.185059 
	C121.988220,69.396767 122.037476,69.836220 122.172791,70.028351 
	C122.480659,70.482430 122.667015,70.734169 122.929092,71.185814 
	C122.991005,71.395935 123.039223,71.831383 123.174271,72.025642 
	C123.481972,72.484467 123.669846,72.737732 123.932602,73.189850 
	C123.992271,73.399994 124.037964,73.834511 124.172989,74.027756 
	C124.480446,74.484314 124.667503,74.736786 124.930176,75.187462 
	C124.991158,75.396500 125.040062,75.829254 125.175064,76.024765 
	C125.483070,76.486259 125.672249,76.740204 125.937172,77.191338 
	C125.996742,77.400566 126.048592,77.832550 126.056297,78.231049 
	C127.755219,83.377571 129.446426,88.125603 131.545029,94.017365 
	C124.170570,94.017365 117.583603,94.017365 110.641281,94.018456 
	C109.811958,94.038879 109.337990,94.058212 108.864021,94.077545 
	C108.864021,94.077545 108.945183,94.046997 108.934540,93.683945 
	C108.148888,90.636604 107.718887,87.789246 106.540367,85.295662 
	C100.810654,73.172371 94.958313,61.104897 88.959206,49.112797 
	C87.677109,46.549889 85.604843,44.382259 83.896599,42.032536 
	C83.896599,42.032536 83.514824,42.024120 83.012787,42.177040 
	C81.486671,43.597191 80.173698,44.725025 79.484322,46.153748 
	C74.067688,57.379700 68.897659,68.726280 63.365757,79.894081 
	C61.484398,83.692154 59.455879,87.881638 56.332897,90.514091 
	C46.617599,98.703384 40.530834,108.738815 38.098640,121.131653 
	C37.823784,122.532143 37.445377,124.238953 36.486065,125.115082 
	C33.958149,127.423790 22.272577,125.761703 20.216862,122.758049 
	C22.936598,116.600868 25.442654,110.711838 27.948711,104.822815 
	C27.948711,104.822815 27.998480,104.394402 28.205280,103.999779 
	C28.594509,103.344261 28.775763,103.082550 28.955837,102.820030 
z"/>
<path fill="#697F31" opacity="1.000000" stroke="none" 
	d="
M20.003185,123.026207 
	C22.272577,125.761703 33.958149,127.423790 36.486065,125.115082 
	C37.445377,124.238953 37.823784,122.532143 38.098640,121.131653 
	C40.530834,108.738815 46.617599,98.703384 56.332897,90.514091 
	C59.455879,87.881638 61.484398,83.692154 63.365757,79.894081 
	C68.897659,68.726280 74.067688,57.379700 79.484322,46.153748 
	C80.173698,44.725025 81.486671,43.597191 82.822189,42.188416 
	C78.239586,52.445354 73.327141,62.835236 68.459175,73.245911 
	C65.980537,78.546761 63.581879,83.885002 61.173691,89.148163 
	C68.994499,86.150452 76.638924,83.220352 84.805328,80.393005 
	C86.216728,80.375137 87.106148,80.254517 87.995575,80.133904 
	C87.995575,80.133904 88.427231,80.007286 89.068390,80.049438 
	C93.187469,80.366890 96.665390,80.642189 100.143303,80.917488 
	C100.143303,80.917488 100.055695,80.979576 100.163750,81.128555 
	C100.451385,81.540497 100.657455,81.780739 100.890022,81.998268 
	C102.490883,85.776031 104.091736,89.553787 105.305038,93.678024 
	C102.116920,94.040359 99.254303,93.686195 96.527748,94.143425 
	C89.175743,95.376312 81.317535,95.530807 76.061554,102.174980 
	C76.061554,102.174980 76.060387,102.083488 75.776199,102.127304 
	C74.675636,102.830994 73.859261,103.490860 73.042892,104.150726 
	C73.042892,104.150726 72.976807,104.043823 72.846344,104.192886 
	C72.471664,104.585800 72.227448,104.829643 71.983238,105.073486 
	C71.983238,105.073486 71.978004,104.981781 71.849457,105.176636 
	C71.493767,105.639702 71.266624,105.907913 71.039474,106.176117 
	C70.586540,106.720833 70.133606,107.265556 69.244171,108.115067 
	C68.557846,108.681854 68.308029,108.943832 68.058205,109.205811 
	C68.009399,109.503944 67.858803,109.736023 67.201370,110.145851 
	C66.519707,110.618202 66.243088,110.846748 65.966469,111.075294 
	C65.966469,111.075294 66.041870,110.969635 65.779694,111.150757 
	C58.696312,118.109665 57.308659,132.477448 62.846779,138.984665 
	C63.169285,139.425766 63.491787,139.866882 64.062202,140.759598 
	C64.482018,141.484726 64.672630,141.744522 64.881958,141.990570 
	C65.195869,142.427856 65.509789,142.865158 66.068916,143.755341 
	C66.485664,144.487091 66.677765,144.750961 66.890427,144.999863 
	C66.890427,144.999863 66.997314,145.412018 67.191162,145.820099 
	C67.615341,146.496506 67.845673,146.764816 68.075996,147.033142 
	C68.075996,147.033142 67.965881,147.025162 68.158112,147.151917 
	C68.595024,147.527313 68.839714,147.775940 69.084404,148.024567 
	C69.084404,148.024567 68.975128,148.024277 69.161957,148.152649 
	C69.594391,148.528275 69.839996,148.775528 70.085602,149.022781 
	C70.085602,149.022781 69.977348,149.024551 70.163101,149.153198 
	C70.594551,149.528778 70.840256,149.775696 71.085960,150.022614 
	C71.085960,150.022614 70.979370,150.034653 71.177406,150.150391 
	C71.642014,150.498474 71.908585,150.730804 72.175163,150.963135 
	C72.175163,150.963135 72.598099,150.992355 72.973335,151.209503 
	C73.591278,151.624130 73.838402,151.815918 74.089943,152.002014 
	C74.089943,152.002014 74.002113,152.017502 74.176033,152.158264 
	C74.598366,152.539078 74.846779,152.779144 75.095192,153.019196 
	C75.095192,153.019196 74.978706,152.957809 75.174530,153.186737 
	C76.295288,153.929062 77.220222,154.442459 78.145164,154.955872 
	C78.145164,154.955872 78.599045,155.009064 79.068787,155.211380 
	C80.079269,155.594315 80.620003,155.774933 81.160736,155.955566 
	C87.178230,157.289505 93.213783,159.778214 99.208954,159.684448 
	C108.013603,159.546768 116.816322,157.468262 124.209328,152.071136 
	C127.455582,149.701263 130.748154,148.794662 134.708466,148.912994 
	C138.290680,149.020004 141.903793,148.071640 145.487061,148.171432 
	C147.639542,148.231400 151.101562,146.081497 151.229614,150.971054 
	C150.493591,151.611954 150.230698,151.844284 149.967804,152.076614 
	C149.967804,152.076614 150.032440,151.966537 149.802155,152.163452 
	C149.072006,153.286423 148.572159,154.212463 148.072311,155.138504 
	C148.072311,155.138504 147.992828,155.061203 147.849152,155.203888 
	C147.463058,155.590668 147.220642,155.834747 146.978226,156.078827 
	C146.978226,156.078827 146.976852,155.978470 146.844131,156.161606 
	C146.466934,156.589371 146.222473,156.834015 145.977997,157.078644 
	C145.977997,157.078644 145.976715,156.978333 145.844177,157.161728 
	C145.467056,157.589645 145.222458,157.834167 144.977859,158.078690 
	C144.977859,158.078690 144.976654,157.978134 144.844360,158.161697 
	C144.467361,158.589676 144.222656,158.834091 143.977951,159.078522 
	C143.977951,159.078522 143.976959,158.978104 143.844574,159.161484 
	C143.467636,159.589081 143.223083,159.833298 142.978531,160.077515 
	C142.978531,160.077515 142.978195,159.978317 142.844757,160.161270 
	C142.467316,160.588638 142.223343,160.833038 141.979355,161.077454 
	C141.979355,161.077454 141.978836,160.979492 141.844910,161.160431 
	C141.468552,161.584610 141.226105,161.827850 140.983643,162.071091 
	C140.983643,162.071091 141.068878,161.991577 140.778885,162.078735 
	C139.672409,162.827133 138.855927,163.488373 138.039459,164.149628 
	C138.039459,164.149628 138.041946,164.061707 137.718002,164.100708 
	C134.946060,165.817490 132.498047,167.495239 130.050049,169.173004 
	C130.050049,169.173004 129.994370,169.045822 129.864777,169.161682 
	C129.470825,169.460983 129.226639,169.668182 129.002625,169.899170 
	C128.267944,170.276489 127.533272,170.653809 126.096802,171.037720 
	C123.940430,171.754929 122.485847,172.465546 121.031265,173.176147 
	C121.031265,173.176163 121.037735,173.075165 120.724174,173.069183 
	C119.282471,173.417862 118.154335,173.772491 117.026199,174.127136 
	C112.421890,175.076630 107.768051,176.995102 103.224159,176.762833 
	C95.128723,176.348984 87.094597,174.668152 79.048599,173.427872 
	C77.846375,173.242554 76.718910,172.572281 75.074295,171.729980 
	C73.325623,170.906418 72.059517,170.479202 70.793411,170.052002 
	C70.793411,170.051987 70.389709,170.019180 70.020325,169.797028 
	C69.399048,169.374069 69.141647,169.180542 68.878761,168.994324 
	C68.878761,168.994324 69.008049,169.050568 68.834084,168.797089 
	C67.060707,167.719177 65.461288,166.894745 63.861874,166.070312 
	C63.861874,166.070312 63.958805,166.064499 63.797531,165.825470 
	C62.708889,165.081863 61.781517,164.577271 60.854149,164.072678 
	C60.854149,164.072678 60.957348,164.066086 60.792660,163.824707 
	C59.680859,163.073822 58.733749,162.564301 57.786640,162.054779 
	C57.488644,162.010132 57.257465,161.861526 56.851921,161.205597 
	C56.385574,160.524811 56.160419,160.247360 55.935265,159.969925 
	C55.935265,159.969925 56.031807,159.980087 55.844025,159.845032 
	C55.411610,159.466415 55.166985,159.222839 54.922359,158.979263 
	C54.922359,158.979263 55.020588,158.978363 54.838463,158.844116 
	C54.411743,158.466400 54.167145,158.222931 53.922546,157.979462 
	C53.922543,157.979462 54.020424,157.978622 53.838448,157.844116 
	C53.411831,157.466263 53.167187,157.222946 52.922539,156.979630 
	C52.922539,156.979630 53.020226,156.978897 52.839546,156.844666 
	C52.415512,156.468155 52.172157,156.225876 51.928802,155.983597 
	C51.928806,155.983597 52.008587,156.068359 51.919861,155.777985 
	C51.169498,154.671310 50.507862,153.855011 49.846222,153.038696 
	C49.533737,153.005936 49.288605,152.860031 49.001266,152.011292 
	C46.641609,146.613770 44.391499,141.805923 42.141388,136.998077 
	C41.745964,133.150330 41.293694,129.307220 40.980202,125.452812 
	C40.833572,123.650024 40.955116,121.825432 40.271381,119.935539 
	C40.130245,122.352150 39.989109,124.768768 39.807060,127.885887 
	C31.963608,127.885887 24.147490,127.885887 16.124413,127.885887 
	C16.695299,126.671463 17.477802,125.006882 18.839706,123.164612 
	C19.613798,123.000015 19.808491,123.013107 20.003185,123.026207 
z"/>
<path fill="#687E30" opacity="1.000000" stroke="none" 
	d="
M168.888031,58.986233 
	C168.888031,58.986233 168.999268,59.397724 169.153778,59.804607 
	C169.482712,60.476120 169.669739,60.731525 169.869370,60.977703 
	C169.869370,60.977703 169.995224,61.398846 170.019470,61.991264 
	C170.644348,64.052948 171.244965,65.522209 171.845596,66.991470 
	C171.648438,70.759430 171.451294,74.527397 170.808273,78.811722 
	C169.932755,80.265968 169.503113,81.203850 169.073456,82.141724 
	C169.073456,82.141724 169.060455,82.039162 168.822830,82.206367 
	C168.073853,83.319305 167.562515,84.265045 167.051178,85.210785 
	C167.009430,85.508369 166.862808,85.739388 166.208679,86.146339 
	C165.527130,86.613785 165.248199,86.838737 164.969284,87.063690 
	C164.969284,87.063698 164.979584,86.967339 164.845108,87.154999 
	C164.467178,87.586273 164.223709,87.829895 163.980255,88.073509 
	C163.980255,88.073509 163.982147,87.978737 163.845352,88.157684 
	C163.468781,88.580032 163.229004,88.823433 162.989227,89.066833 
	C162.989227,89.066833 163.084732,88.995171 162.737000,89.061562 
	C158.593491,91.042564 154.797684,92.957176 151.001877,94.871780 
	C151.001877,94.871780 150.608871,95.002792 150.007156,94.889236 
	C147.771973,94.530716 146.084961,93.894661 144.514465,94.109688 
	C138.295700,94.961121 135.994492,91.070633 134.231094,86.208275 
	C133.067383,82.999496 133.502289,81.187805 137.413986,80.904182 
	C139.640076,80.742767 141.806442,79.758141 144.311035,78.957901 
	C148.896622,77.169609 152.326584,74.753983 151.840714,69.581787 
	C151.507919,66.039116 146.481140,63.126759 141.423416,63.005394 
	C134.505951,62.839401 127.590935,62.570675 120.457764,62.061615 
	C118.144409,56.888706 116.048157,52.000172 114.313004,46.901066 
	C124.131615,46.442989 133.589127,46.195477 143.429443,45.953583 
	C150.743240,44.101307 152.704071,42.138096 151.861664,37.574017 
	C150.795059,31.795240 146.324463,31.978655 141.891174,31.996334 
	C135.590210,32.021458 129.288651,31.893051 122.743332,31.550341 
	C119.773582,30.849524 117.009407,29.914860 114.330139,30.115282 
	C108.853783,30.524942 105.691261,28.601618 103.929291,23.215244 
	C102.087395,17.584501 102.135658,17.031984 108.347496,17.006857 
	C119.665665,16.961071 130.984772,17.053341 142.301971,16.938299 
	C144.570755,16.915237 146.832733,16.224230 149.097855,15.841196 
	C149.523621,15.896863 149.949387,15.952531 150.883484,16.354855 
	C153.653976,17.449526 155.916138,18.197540 158.178314,18.945557 
	C158.178314,18.945557 158.605225,18.990580 158.987762,19.206055 
	C159.617477,19.618610 159.867157,19.812449 160.119370,20.003040 
	C160.119370,20.003040 160.015930,20.039421 160.197266,20.158587 
	C160.645889,20.504507 160.913177,20.731262 161.180450,20.958019 
	C161.180450,20.958019 161.602020,20.990845 161.976868,21.204784 
	C162.592377,21.618155 162.838242,21.810919 163.089340,21.997017 
	C163.089340,21.997017 163.008286,22.012371 163.177277,22.156494 
	C163.590836,22.537849 163.835419,22.775082 164.080002,23.012314 
	C164.080002,23.012316 163.989639,23.015743 164.167496,23.154713 
	C164.590225,23.533932 164.835098,23.774181 165.079971,24.014431 
	C165.079971,24.014431 164.985977,24.015947 165.165131,24.153473 
	C165.589340,24.532091 165.834366,24.773182 166.079407,25.014273 
	C166.079407,25.014273 166.002304,24.935986 166.089523,25.225403 
	C166.833572,26.327116 167.490417,27.139414 168.147247,27.951710 
	C168.147247,27.951710 168.036697,27.997717 168.157288,28.126778 
	C168.461334,28.507370 168.658432,28.747723 168.869171,28.976898 
	C168.869171,28.976898 168.994995,29.398220 169.035187,30.049530 
	C170.706390,38.087349 170.278076,45.057243 165.592560,51.467930 
	C164.944931,52.354015 165.920380,54.426384 166.144440,55.949562 
	C166.144440,55.949562 166.044754,56.025684 166.210022,56.146049 
	C166.643143,56.497440 166.911011,56.728462 167.178864,56.959484 
	C167.481903,57.000767 167.719437,57.147842 168.103851,57.802116 
	C168.490402,58.476421 168.681015,58.737328 168.888031,58.986233 
z"/>
<path fill="#6D8235" opacity="1.000000" stroke="none" 
	d="
M163.871628,135.309692 
	C162.837448,134.052750 162.073746,133.065506 160.482117,131.007965 
	C160.448730,137.009003 157.549347,137.713074 153.299988,136.608475 
	C153.299988,131.071152 153.299988,125.462891 153.299988,119.036057 
	C157.788528,119.036057 162.456558,118.527054 166.913300,119.275749 
	C168.810791,119.594513 171.192459,122.335526 171.648102,124.359779 
	C172.059097,126.185684 170.142029,128.535629 169.002457,131.247574 
	C169.527420,132.152771 170.572815,133.955307 172.538193,137.344162 
	C168.827911,136.564301 166.485016,136.071838 163.871628,135.309692 
z"/>
<path fill="#6D8235" opacity="1.000000" stroke="none" 
	d="
M99.226257,125.975418 
	C101.541130,126.065300 103.437042,126.151016 105.544426,126.246300 
	C104.650581,128.717361 104.650581,128.717361 96.332298,131.585907 
	C99.720451,131.824280 103.108612,132.062668 106.762932,132.319763 
	C106.831429,133.759399 106.891602,135.023895 106.969139,136.653564 
	C101.366974,136.653564 95.992180,136.653564 90.297272,136.653564 
	C90.297272,130.911880 90.297272,125.346252 90.297272,119.382492 
	C95.729744,119.382492 101.092239,119.382492 106.758934,119.382492 
	C106.827126,120.729233 106.891113,121.992882 106.996864,124.081345 
	C103.311066,124.081345 99.852745,124.081345 96.394417,124.081345 
	C96.369598,124.509193 96.344788,124.937050 96.319977,125.364899 
	C97.149086,125.567017 97.978188,125.769135 99.226257,125.975418 
z"/>
<path fill="#6B8133" opacity="1.000000" stroke="none" 
	d="
M139.185471,136.985443 
	C137.322174,136.304108 135.854797,135.642090 134.396118,134.961426 
	C131.039017,133.394867 126.906219,131.326721 128.317368,127.321632 
	C129.457748,124.085022 132.854767,120.963043 136.039215,119.300339 
	C139.969086,117.248444 147.163147,120.192360 149.513718,124.224365 
	C150.453354,125.836151 150.844406,129.335236 149.886612,130.195572 
	C146.859268,132.914902 143.076111,134.792847 139.185471,136.985443 
M140.325882,130.867630 
	C141.511093,129.748810 142.696304,128.630005 143.881516,127.511200 
	C142.361038,126.348206 140.809280,124.241165 139.328979,124.290245 
	C137.875992,124.338402 135.603073,126.382080 135.270264,127.897148 
	C134.589676,130.995575 137.281754,130.956406 140.325882,130.867630 
z"/>
<path fill="#6F8437" opacity="1.000000" stroke="none" 
	d="
M124.259415,125.199570 
	C122.308762,124.942680 120.670898,124.285057 118.975700,124.060844 
	C116.341232,123.712410 114.857727,124.845909 115.057915,127.742844 
	C115.261421,130.687836 116.553490,131.896469 119.562958,131.056351 
	C122.556145,130.220795 125.665657,129.177887 127.855721,132.661133 
	C122.626022,138.070877 114.763641,138.520706 110.121346,133.676208 
	C106.618874,130.021164 107.270889,124.753059 111.720734,120.753670 
	C115.392769,117.453346 123.993469,118.453804 127.714096,122.791786 
	C126.643349,123.535896 125.594925,124.264488 124.259415,125.199570 
z"/>
<path fill="#6A8032" opacity="1.000000" stroke="none" 
	d="
M71.958801,119.157639 
	C73.377365,119.114952 74.795937,119.072258 76.958191,119.232033 
	C78.852982,119.607445 80.004089,119.780388 81.155197,119.953323 
	C81.155197,119.953323 81.595123,120.016884 81.989319,120.340401 
	C83.309875,121.095467 84.236229,121.527008 85.162582,121.958557 
	C85.473511,122.000893 85.716408,122.152351 85.959503,123.063141 
	C85.706436,126.851204 85.385132,129.989044 85.063828,133.126892 
	C85.063835,133.126892 85.059769,133.059830 84.739136,133.091797 
	C82.944000,134.041122 81.469513,134.958481 79.995026,135.875854 
	C76.942764,136.236588 73.890511,136.597305 70.310928,136.498276 
	C69.520119,133.942825 68.947601,131.830231 69.061005,129.755127 
	C69.263046,126.058052 67.481865,121.712349 71.958801,119.157639 
M75.013428,124.183319 
	C75.013428,126.396759 75.013428,128.610199 75.013428,130.823624 
	C75.384819,131.160721 75.756210,131.497803 76.127609,131.834885 
	C77.709457,130.401993 79.291313,128.969116 80.873169,127.536224 
	C79.173454,126.380241 77.473732,125.224258 75.013428,124.183319 
z"/>
<path fill="#708539" opacity="1.000000" stroke="none" 
	d="
M148.816498,15.512254 
	C146.832733,16.224230 144.570755,16.915237 142.301971,16.938299 
	C130.984772,17.053341 119.665665,16.961071 108.347496,17.006857 
	C102.135658,17.031984 102.087395,17.584501 103.929291,23.215244 
	C105.691261,28.601618 108.853783,30.524942 114.330139,30.115282 
	C117.009407,29.914860 119.773582,30.849524 122.280487,31.610455 
	C119.246834,31.961456 116.402641,31.716734 113.623276,32.036133 
	C107.656250,32.721848 104.008080,30.780800 102.541153,24.517675 
	C101.976234,22.105690 99.522362,20.136126 97.959595,18.002977 
	C97.990036,18.040974 98.038818,18.125250 98.038818,18.125250 
	C98.042114,15.810639 99.036736,14.942760 101.496498,14.968089 
	C117.175117,15.129540 132.855408,15.129904 148.816498,15.512254 
z"/>
<path fill="#71863A" opacity="1.000000" stroke="none" 
	d="
M101.844589,27.985155 
	C100.196228,25.563374 98.798210,22.906809 96.818428,20.795872 
	C95.299576,19.176409 93.140732,17.403898 91.101921,17.176729 
	C86.346733,16.646893 81.489861,17.101847 76.678978,16.975420 
	C73.228325,16.884739 71.226677,18.475069 69.690231,21.472202 
	C67.212204,26.306059 64.381271,30.959002 61.407936,35.845566 
	C64.138832,29.456417 67.075745,22.867502 70.288857,16.416153 
	C70.702950,15.584740 72.541527,15.101478 73.732315,15.078357 
	C80.223839,14.952310 86.725861,14.864785 93.207893,15.144145 
	C94.633804,15.205599 95.993332,16.807560 97.711121,17.912685 
	C98.038818,18.125250 97.990036,18.040974 98.012405,18.368073 
	C99.304710,21.791832 100.574646,24.888494 101.844589,27.985155 
z"/>
<path fill="#72873C" opacity="1.000000" stroke="none" 
	d="
M83.952759,42.395782 
	C85.604843,44.382259 87.677109,46.549889 88.959206,49.112797 
	C94.958313,61.104897 100.810654,73.172371 106.540367,85.295662 
	C107.718887,87.789246 108.148888,90.636604 108.924744,93.726181 
	C102.611252,81.320801 96.270348,68.523132 89.997559,55.692154 
	C87.911461,51.425053 86.000137,47.072514 83.952759,42.395782 
z"/>
<path fill="#74883E" opacity="1.000000" stroke="none" 
	d="
M143.999710,79.144218 
	C141.806442,79.758141 139.640076,80.742767 137.413986,80.904182 
	C133.502289,81.187805 133.067383,82.999496 134.231094,86.208275 
	C135.994492,91.070633 138.295700,94.961121 144.514465,94.109688 
	C146.084961,93.894661 147.771973,94.530716 149.802399,94.920540 
	C141.163086,98.382278 135.979218,95.906151 132.218079,86.590149 
	C131.507523,84.830193 130.455032,83.208282 129.253143,81.782379 
	C128.945969,82.042084 129.030304,82.081451 129.255341,81.700844 
	C130.258560,80.548553 131.007965,79.148460 131.819839,79.111252 
	C135.870789,78.925583 139.938126,79.097870 143.999710,79.144218 
z"/>
<path fill="#71863A" opacity="1.000000" stroke="none" 
	d="
M110.996643,94.017365 
	C117.583603,94.017365 124.170570,94.017365 131.545029,94.017365 
	C129.446426,88.125603 127.755219,83.377571 126.344101,78.410080 
	C127.426239,79.487572 128.228271,80.784515 129.030304,82.081451 
	C129.030304,82.081451 128.945969,82.042084 128.912689,82.009659 
	C130.766281,86.439690 132.653152,90.902145 134.785690,95.945602 
	C126.710472,95.945602 119.320229,95.945602 111.464302,95.585350 
	C110.997963,94.822517 110.997307,94.419945 110.996643,94.017365 
z"/>
<path fill="#71863A" opacity="1.000000" stroke="none" 
	d="
M43.648880,72.018791 
	C42.779724,75.246094 41.970028,78.849823 40.365368,82.055634 
	C37.032768,88.713531 33.278500,95.160370 29.405605,101.851418 
	C33.571232,92.659431 38.028374,83.309776 42.487434,73.961037 
	C42.766773,73.375397 43.061039,72.796867 43.648880,72.018791 
z"/>
<path fill="#72873C" opacity="1.000000" stroke="none" 
	d="
M76.423935,102.099854 
	C81.317535,95.530807 89.175743,95.376312 96.527748,94.143425 
	C99.254303,93.686195 102.116920,94.040359 105.369598,94.026382 
	C104.472725,94.680771 103.092728,95.951912 101.779755,95.886086 
	C92.799515,95.435883 84.612984,97.931175 76.423935,102.099854 
z"/>
<path fill="#71863A" opacity="1.000000" stroke="none" 
	d="
M58.642708,41.005089 
	C57.494865,44.801151 56.369511,48.950897 54.516766,52.745483 
	C51.855862,58.195251 48.664944,63.386238 45.408974,68.845047 
	C49.237286,60.320194 53.356415,51.637749 57.477592,42.956272 
	C57.757259,42.367142 58.052341,41.785324 58.642708,41.005089 
z"/>
<path fill="#708539" opacity="1.000000" stroke="none" 
	d="
M166.098053,55.580627 
	C165.920380,54.426384 164.944931,52.354015 165.592560,51.467930 
	C170.278076,45.057243 170.706390,38.087349 169.062347,30.267704 
	C173.655243,36.464436 172.657333,43.048431 168.931381,49.639595 
	C167.903214,51.458374 167.007935,53.352264 166.098053,55.580627 
z"/>
<path fill="#72873C" opacity="1.000000" stroke="none" 
	d="
M62.886765,138.586090 
	C57.308659,132.477448 58.696312,118.109665 65.832535,111.188446 
	C64.756866,115.010117 62.590015,118.895683 62.173412,122.960617 
	C61.661236,127.958031 62.609661,133.105133 62.886765,138.586090 
z"/>
<path fill="#71863A" opacity="1.000000" stroke="none" 
	d="
M20.216862,122.758049 
	C19.808491,123.013107 19.613798,123.000015 19.126860,122.969574 
	C21.672085,117.040016 24.509558,111.127800 27.647869,105.019203 
	C25.442654,110.711838 22.936598,116.600868 20.216862,122.758049 
z"/>
<path fill="#74883E" opacity="1.000000" stroke="none" 
	d="
M42.081963,137.386078 
	C44.391499,141.805923 46.641609,146.613770 48.922142,151.806458 
	C46.642555,147.385559 44.332550,142.579819 42.081963,137.386078 
z"/>
<path fill="#74883E" opacity="1.000000" stroke="none" 
	d="
M71.531891,119.102875 
	C67.481865,121.712349 69.263046,126.058052 69.061005,129.755127 
	C68.947601,131.830231 69.520119,133.942825 69.881165,136.432495 
	C69.340019,136.318375 68.163200,135.827164 68.146660,135.299576 
	C67.997673,130.548523 67.924881,125.784126 68.183685,121.042969 
	C68.222763,120.326996 70.085693,119.710571 71.531891,119.102875 
z"/>
<path fill="#74883E" opacity="1.000000" stroke="none" 
	d="
M151.377762,94.920486 
	C154.797684,92.957176 158.593491,91.042564 162.772858,89.109306 
	C159.355499,91.050171 155.554565,93.009682 151.377762,94.920486 
z"/>
<path fill="#74883E" opacity="1.000000" stroke="none" 
	d="
M100.047249,80.507599 
	C96.665390,80.642189 93.187469,80.366890 89.292084,80.025887 
	C92.566803,80.006012 96.258995,80.051857 100.047249,80.507599 
z"/>
<path fill="#74883E" opacity="1.000000" stroke="none" 
	d="
M85.387146,132.945770 
	C85.385132,129.989044 85.706436,126.851204 86.036072,123.269424 
	C88.810478,126.235214 89.348747,129.570099 85.387146,132.945770 
z"/>
<path fill="#74883E" opacity="1.000000" stroke="none" 
	d="
M130.404694,169.098236 
	C132.498047,167.495239 134.946060,165.817490 137.761963,164.102036 
	C135.673035,165.717377 133.216202,167.370407 130.404694,169.098236 
z"/>
<path fill="#708539" opacity="1.000000" stroke="none" 
	d="
M157.973938,18.645452 
	C155.916138,18.197540 153.653976,17.449526 151.199600,16.417530 
	C153.261444,16.870815 155.515503,17.608082 157.973938,18.645452 
z"/>
<path fill="#74883E" opacity="1.000000" stroke="none" 
	d="
M80.342262,135.921616 
	C81.469513,134.958481 82.944000,134.041122 84.772636,133.094147 
	C83.647682,134.032150 82.168594,134.999756 80.342262,135.921616 
z"/>
<path fill="#74883E" opacity="1.000000" stroke="none" 
	d="
M64.023697,166.372345 
	C65.461288,166.894745 67.060707,167.719177 68.805939,168.861725 
	C67.363014,168.344696 65.774261,167.509537 64.023697,166.372345 
z"/>
<path fill="#708539" opacity="1.000000" stroke="none" 
	d="
M171.904678,66.630310 
	C171.244965,65.522209 170.644348,64.052948 170.046295,62.209396 
	C170.687164,63.313129 171.325455,64.791145 171.904678,66.630310 
z"/>
<path fill="#74883E" opacity="1.000000" stroke="none" 
	d="
M121.387924,173.102112 
	C122.485847,172.465546 123.940430,171.754929 125.778748,171.044418 
	C124.689850,171.705704 123.217216,172.366882 121.387924,173.102112 
z"/>
<path fill="#74883E" opacity="1.000000" stroke="none" 
	d="
M70.973984,170.348114 
	C72.059517,170.479202 73.325623,170.906418 74.794144,171.605896 
	C73.715889,171.466843 72.435219,171.055542 70.973984,170.348114 
z"/>
<path fill="#72873C" opacity="1.000000" stroke="none" 
	d="
M73.365044,104.083359 
	C73.859261,103.490860 74.675636,102.830994 75.821945,102.126816 
	C75.330322,102.726997 74.508759,103.371498 73.365044,104.083359 
z"/>
<path fill="#72873C" opacity="1.000000" stroke="none" 
	d="
M77.991203,154.661652 
	C77.220222,154.442459 76.295288,153.929062 75.205200,153.128479 
	C75.972443,153.350006 76.904846,153.858719 77.991203,154.661652 
z"/>
<path fill="#74883E" opacity="1.000000" stroke="none" 
	d="
M167.341217,85.048767 
	C167.562515,84.265045 168.073853,83.319305 168.874115,82.199928 
	C168.652451,82.979774 168.141861,83.933266 167.341217,85.048767 
z"/>
<path fill="#74883E" opacity="1.000000" stroke="none" 
	d="
M49.923630,153.356903 
	C50.507862,153.855011 51.169498,154.671310 51.877487,155.817886 
	C51.282906,155.323792 50.641972,154.499451 49.923630,153.356903 
z"/>
<path fill="#74883E" opacity="1.000000" stroke="none" 
	d="
M87.625290,80.075806 
	C87.106148,80.254517 86.216728,80.375137 85.171341,80.299622 
	C85.761917,80.074890 86.508461,80.046295 87.625290,80.075806 
z"/>
<path fill="#74883E" opacity="1.000000" stroke="none" 
	d="
M169.371246,81.996628 
	C169.503113,81.203850 169.932755,80.265968 170.628143,79.152397 
	C170.485596,79.934982 170.077316,80.893257 169.371246,81.996628 
z"/>
<path fill="#74883E" opacity="1.000000" stroke="none" 
	d="
M57.946133,162.346375 
	C58.733749,162.564301 59.680859,163.073822 60.795887,163.876312 
	C60.011074,163.658859 59.058350,163.148422 57.946133,162.346375 
z"/>
<path fill="#74883E" opacity="1.000000" stroke="none" 
	d="
M138.359879,164.076584 
	C138.855927,163.488373 139.672409,162.827133 140.818665,162.121338 
	C140.325745,162.719040 139.503021,163.361298 138.359879,164.076584 
z"/>
<path fill="#74883E" opacity="1.000000" stroke="none" 
	d="
M61.005081,164.363464 
	C61.781517,164.577271 62.708889,165.081863 63.800369,165.873947 
	C63.028320,165.659042 62.092163,165.156647 61.005081,164.363464 
z"/>
<path fill="#74883E" opacity="1.000000" stroke="none" 
	d="
M148.365387,154.992508 
	C148.572159,154.212463 149.072006,153.286423 149.857193,152.195740 
	C149.647842,152.969589 149.153152,153.908051 148.365387,154.992508 
z"/>
<path fill="#74883E" opacity="1.000000" stroke="none" 
	d="
M85.002838,121.665756 
	C84.236229,121.527008 83.309875,121.095467 82.200821,120.408676 
	C82.959778,120.559944 83.901436,120.966454 85.002838,121.665756 
z"/>
<path fill="#708539" opacity="1.000000" stroke="none" 
	d="
M168.089828,27.626122 
	C167.490417,27.139414 166.833572,26.327116 166.128693,25.186869 
	C166.731216,25.672789 167.381821,26.486660 168.089828,27.626122 
z"/>
<path fill="#74883E" opacity="1.000000" stroke="none" 
	d="
M80.944336,119.645393 
	C80.004089,119.780388 78.852982,119.607445 77.379929,119.296661 
	C78.283150,119.218369 79.508308,119.277916 80.944336,119.645393 
z"/>
<path fill="#72873C" opacity="1.000000" stroke="none" 
	d="
M110.641281,94.018456 
	C110.997307,94.419945 110.997963,94.822517 110.998772,95.527321 
	C110.332756,95.464539 109.666595,95.099533 108.932228,94.406036 
	C109.337990,94.058212 109.811958,94.038879 110.641281,94.018456 
z"/>
<path fill="#74883E" opacity="1.000000" stroke="none" 
	d="
M117.398453,174.079636 
	C118.154335,173.772491 119.282471,173.417862 120.774658,173.072510 
	C120.016037,173.398575 118.893372,173.715363 117.398453,174.079636 
z"/>
<path fill="#72873C" opacity="1.000000" stroke="none" 
	d="
M81.000580,155.682922 
	C80.620003,155.774933 80.079269,155.594315 79.288437,155.274338 
	C79.639030,155.226761 80.239731,155.318527 81.000580,155.682922 
z"/>
<path fill="#74883E" opacity="1.000000" stroke="none" 
	d="
M141.248962,161.987152 
	C141.226105,161.827850 141.468552,161.584610 141.893906,161.160156 
	C141.889297,161.287033 141.701797,161.595108 141.248962,161.987152 
z"/>
<path fill="#72873C" opacity="1.000000" stroke="none" 
	d="
M67.984444,146.770737 
	C67.845673,146.764816 67.615341,146.496506 67.205841,146.032501 
	C67.315407,146.060654 67.604149,146.284485 67.984444,146.770737 
z"/>
<path fill="#72873C" opacity="1.000000" stroke="none" 
	d="
M68.987579,147.763351 
	C68.839714,147.775940 68.595024,147.527313 68.162056,147.096863 
	C68.279442,147.110748 68.585098,147.306442 68.987579,147.763351 
z"/>
<path fill="#72873C" opacity="1.000000" stroke="none" 
	d="
M69.989906,148.760925 
	C69.839996,148.775528 69.594391,148.528275 69.162064,148.098022 
	C69.281631,148.109711 69.587921,148.304398 69.989906,148.760925 
z"/>
<path fill="#708539" opacity="1.000000" stroke="none" 
	d="
M160.032715,19.749523 
	C159.867157,19.812449 159.617477,19.618610 159.195145,19.261389 
	C159.328659,19.232834 159.637360,19.364420 160.032715,19.749523 
z"/>
<path fill="#72873C" opacity="1.000000" stroke="none" 
	d="
M70.990875,149.760376 
	C70.840256,149.775696 70.594551,149.528778 70.162186,149.099075 
	C70.282280,149.110245 70.589035,149.304199 70.990875,149.760376 
z"/>
<path fill="#72873C" opacity="1.000000" stroke="none" 
	d="
M72.041473,150.719086 
	C71.908585,150.730804 71.642014,150.498474 71.171356,150.097107 
	C71.280769,150.110382 71.594284,150.292694 72.041473,150.719086 
z"/>
<path fill="#72873C" opacity="1.000000" stroke="none" 
	d="
M74.011993,151.746185 
	C73.838402,151.815918 73.591278,151.624130 73.178062,151.264435 
	C73.316383,151.231613 73.625214,151.360977 74.011993,151.746185 
z"/>
<path fill="#74883E" opacity="1.000000" stroke="none" 
	d="
M129.274506,169.887802 
	C129.226639,169.668182 129.470825,169.460983 129.928391,169.133881 
	C129.929855,169.285614 129.738129,169.581024 129.274506,169.887802 
z"/>
<path fill="#74883E" opacity="1.000000" stroke="none" 
	d="
M150.232178,151.990036 
	C150.230698,151.844284 150.493591,151.611954 150.949554,151.200668 
	C150.927261,151.315628 150.711914,151.609543 150.232178,151.990036 
z"/>
<path fill="#72873C" opacity="1.000000" stroke="none" 
	d="
M75.006760,152.753525 
	C74.846779,152.779144 74.598366,152.539078 74.168266,152.114349 
	C74.297165,152.115753 74.607750,152.301804 75.006760,152.753525 
z"/>
<path fill="#74883E" opacity="1.000000" stroke="none" 
	d="
M68.964615,169.254578 
	C69.141647,169.180542 69.399048,169.374069 69.825317,169.742447 
	C69.683273,169.778275 69.366867,169.646545 68.964615,169.254578 
z"/>
<path fill="#74883E" opacity="1.000000" stroke="none" 
	d="
M143.243347,159.989670 
	C143.223083,159.833298 143.467636,159.589081 143.894775,159.160965 
	C143.887634,159.285309 143.697891,159.593567 143.243347,159.989670 
z"/>
<path fill="#74883E" opacity="1.000000" stroke="none" 
	d="
M142.245148,160.991302 
	C142.223343,160.833038 142.467316,160.588638 142.894348,160.161072 
	C142.888565,160.287003 142.699753,160.596069 142.245148,160.991302 
z"/>
<path fill="#74883E" opacity="1.000000" stroke="none" 
	d="
M147.241364,155.990250 
	C147.220642,155.834747 147.463058,155.590668 147.887787,155.164139 
	C147.881546,155.288345 147.693024,155.595016 147.241364,155.990250 
z"/>
<path fill="#74883E" opacity="1.000000" stroke="none" 
	d="
M52.013069,156.248672 
	C52.172157,156.225876 52.415512,156.468155 52.839935,156.893509 
	C52.713116,156.888977 52.405224,156.701355 52.013069,156.248672 
z"/>
<path fill="#74883E" opacity="1.000000" stroke="none" 
	d="
M146.242126,156.989441 
	C146.222473,156.834015 146.466934,156.589371 146.894318,156.160889 
	C146.886887,156.284775 146.696564,156.592514 146.242126,156.989441 
z"/>
<path fill="#74883E" opacity="1.000000" stroke="none" 
	d="
M53.008682,157.245178 
	C53.167187,157.222946 53.411831,157.466263 53.838894,157.893036 
	C53.712482,157.887909 53.403656,157.699326 53.008682,157.245178 
z"/>
<path fill="#74883E" opacity="1.000000" stroke="none" 
	d="
M145.242020,157.989502 
	C145.222458,157.834167 145.467056,157.589645 145.894348,157.161041 
	C145.886749,157.284744 145.696457,157.592529 145.242020,157.989502 
z"/>
<path fill="#74883E" opacity="1.000000" stroke="none" 
	d="
M54.009068,158.244812 
	C54.167145,158.222931 54.411743,158.466400 54.838951,158.893234 
	C54.712902,158.887787 54.404247,158.698975 54.009068,158.244812 
z"/>
<path fill="#74883E" opacity="1.000000" stroke="none" 
	d="
M56.014885,160.240082 
	C56.160419,160.247360 56.385574,160.524811 56.785637,161.005005 
	C56.671867,160.975266 56.383190,160.742767 56.014885,160.240082 
z"/>
<path fill="#708539" opacity="1.000000" stroke="none" 
	d="
M168.851517,28.716925 
	C168.658432,28.747723 168.461334,28.507370 168.134308,28.071499 
	C168.271774,28.077089 168.552811,28.267021 168.851517,28.716925 
z"/>
<path fill="#74883E" opacity="1.000000" stroke="none" 
	d="
M144.242371,158.989700 
	C144.222656,158.834091 144.467361,158.589676 144.894653,158.161072 
	C144.887054,158.284866 144.696915,158.592865 144.242371,158.989700 
z"/>
<path fill="#74883E" opacity="1.000000" stroke="none" 
	d="
M55.009216,159.244476 
	C55.166985,159.222839 55.411610,159.466415 55.838974,159.893311 
	C55.713161,159.887650 55.404617,159.698669 55.009216,159.244476 
z"/>
<path fill="#708539" opacity="1.000000" stroke="none" 
	d="
M168.876343,58.719948 
	C168.681015,58.737328 168.490402,58.476421 168.181122,58.002388 
	C168.318878,58.018730 168.591766,58.236195 168.876343,58.719948 
z"/>
<path fill="#74883E" opacity="1.000000" stroke="none" 
	d="
M163.255646,88.986908 
	C163.229004,88.823433 163.468781,88.580032 163.892731,88.158600 
	C163.891968,88.289368 163.707001,88.598175 163.255646,88.986908 
z"/>
<path fill="#74883E" opacity="1.000000" stroke="none" 
	d="
M164.244843,87.987076 
	C164.223709,87.829895 164.467178,87.586273 164.893280,87.160110 
	C164.887100,87.285255 164.698257,87.592957 164.244843,87.987076 
z"/>
<path fill="#74883E" opacity="1.000000" stroke="none" 
	d="
M165.239685,86.983185 
	C165.248199,86.838737 165.527130,86.613785 166.008957,86.212677 
	C165.977936,86.325233 165.744003,86.613953 165.239685,86.983185 
z"/>
<path fill="#74883E" opacity="1.000000" stroke="none" 
	d="
M100.884811,81.726929 
	C100.657455,81.780739 100.451385,81.540497 100.132729,81.084724 
	C100.288971,81.079803 100.584290,81.267693 100.884811,81.726929 
z"/>
<path fill="#708539" opacity="1.000000" stroke="none" 
	d="
M167.043365,56.716858 
	C166.911011,56.728462 166.643143,56.497440 166.171951,56.096222 
	C166.281693,56.108765 166.594788,56.291500 167.043365,56.716858 
z"/>
<path fill="#71863A" opacity="1.000000" stroke="none" 
	d="
M28.719658,102.937057 
	C28.775763,103.082550 28.594509,103.344261 28.263180,103.792046 
	C28.237347,103.670647 28.360413,103.362366 28.719658,102.937057 
z"/>
<path fill="#708539" opacity="1.000000" stroke="none" 
	d="
M169.853973,60.717728 
	C169.669739,60.731525 169.482712,60.476120 169.172012,60.016960 
	C169.303360,60.034203 169.570969,60.245975 169.853973,60.717728 
z"/>
<path fill="#71863A" opacity="1.000000" stroke="none" 
	d="
M44.714817,69.930099 
	C44.776276,70.080589 44.594742,70.345459 44.257805,70.795013 
	C44.229023,70.670349 44.352165,70.358604 44.714817,69.930099 
z"/>
<path fill="#708539" opacity="1.000000" stroke="none" 
	d="
M164.993530,23.750761 
	C164.835098,23.774181 164.590225,23.533932 164.165756,23.109531 
	C164.293137,23.112617 164.600113,23.299854 164.993530,23.750761 
z"/>
<path fill="#72873C" opacity="1.000000" stroke="none" 
	d="
M64.873924,141.723312 
	C64.672630,141.744522 64.482018,141.484726 64.174965,141.010864 
	C64.315178,141.025711 64.590530,141.240875 64.873924,141.723312 
z"/>
<path fill="#708539" opacity="1.000000" stroke="none" 
	d="
M161.050674,20.712912 
	C160.913177,20.731262 160.645889,20.504507 160.179047,20.106874 
	C160.293289,20.113268 160.607101,20.290537 161.050674,20.712912 
z"/>
<path fill="#71863A" opacity="1.000000" stroke="none" 
	d="
M60.716202,36.930630 
	C60.774048,37.077797 60.592247,37.342468 60.258213,37.794220 
	C60.231430,37.671570 60.354954,37.360512 60.716202,36.930630 
z"/>
<path fill="#708539" opacity="1.000000" stroke="none" 
	d="
M163.015503,21.738928 
	C162.838242,21.810919 162.592377,21.618155 162.182007,21.256031 
	C162.322067,21.222504 162.631882,21.351671 163.015503,21.738928 
z"/>
<path fill="#708539" opacity="1.000000" stroke="none" 
	d="
M163.997940,22.747471 
	C163.835419,22.775082 163.590836,22.537849 163.169586,22.115967 
	C163.300568,22.115088 163.608215,22.298857 163.997940,22.747471 
z"/>
<path fill="#72873C" opacity="1.000000" stroke="none" 
	d="
M66.883606,144.729294 
	C66.677765,144.750961 66.485664,144.487091 66.179726,144.003769 
	C66.322479,144.019104 66.599640,144.238922 66.883606,144.729294 
z"/>
<path fill="#708539" opacity="1.000000" stroke="none" 
	d="
M165.992996,24.750111 
	C165.834366,24.773182 165.589340,24.532091 165.164352,24.106472 
	C165.291794,24.109945 165.599197,24.297947 165.992996,24.750111 
z"/>
<path fill="#71863A" opacity="1.000000" stroke="none" 
	d="
M59.716621,38.931267 
	C59.774010,39.078197 59.592018,39.342396 59.258095,39.793606 
	C59.231598,39.671127 59.355289,39.360432 59.716621,38.931267 
z"/>
<path fill="#72873C" opacity="1.000000" stroke="none" 
	d="
M66.236313,110.991737 
	C66.243088,110.846748 66.519707,110.618202 67.000183,110.214050 
	C66.971413,110.328362 66.738785,110.618271 66.236313,110.991737 
z"/>
<path fill="#72873C" opacity="1.000000" stroke="none" 
	d="
M68.308731,109.077393 
	C68.308029,108.943832 68.557846,108.681854 69.000107,108.228043 
	C68.981453,108.340477 68.770355,108.644730 68.308731,109.077393 
z"/>
<path fill="#72873C" opacity="1.000000" stroke="none" 
	d="
M71.290771,106.052666 
	C71.266624,105.907913 71.493767,105.639702 71.895309,105.173996 
	C71.893822,105.294075 71.717941,105.611641 71.290771,106.052666 
z"/>
<path fill="#72873C" opacity="1.000000" stroke="none" 
	d="
M72.247482,104.986237 
	C72.227448,104.829643 72.471664,104.585800 72.899788,104.159836 
	C72.893044,104.284798 72.702385,104.591888 72.247482,104.986237 
z"/>

<path fill="#71863A" opacity="1.000000" stroke="none" 
	d="
M111.056488,47.228874 
	C113.351280,51.306370 115.654457,55.782864 117.906158,60.625660 
	C115.591415,56.537270 113.328148,52.082573 111.056488,47.228874 
z"/>
<path fill="#71863A" opacity="1.000000" stroke="none" 
	d="
M119.698441,62.926704 
	C119.970169,63.470097 119.977684,63.908489 119.923492,64.670990 
	C119.285904,64.158981 118.710014,63.322880 118.089043,62.170422 
	C118.507385,62.176613 118.970802,62.499161 119.698441,62.926704 
z"/>
<path fill="#71863A" opacity="1.000000" stroke="none" 
	d="
M102.171082,29.034637 
	C102.294853,29.052908 102.555061,29.256685 102.833229,29.711929 
	C102.661125,29.722113 102.479904,29.474361 102.171082,29.034637 
z"/>
<path fill="#71863A" opacity="1.000000" stroke="none" 
	d="
M108.173233,41.026825 
	C108.306984,41.042061 108.575066,41.250507 108.854095,41.718544 
	C108.664780,41.736061 108.478951,41.483360 108.173233,41.026825 
z"/>
<path fill="#71863A" opacity="1.000000" stroke="none" 
	d="
M109.171921,43.031479 
	C109.306526,43.045605 109.575729,43.252529 109.856163,43.719219 
	C109.665611,43.738430 109.478653,43.486866 109.171921,43.031479 
z"/>
<path fill="#71863A" opacity="1.000000" stroke="none" 
	d="
M110.175125,45.026588 
	C110.313477,45.039574 110.586708,45.248871 110.870392,45.721718 
	C110.673660,45.743805 110.483383,45.489681 110.175125,45.026588 
z"/>
<path fill="#71863A" opacity="1.000000" stroke="none" 
	d="
M125.175064,76.024765 
	C125.311958,76.038521 125.583862,76.247795 125.866684,76.719589 
	C125.672249,76.740204 125.483070,76.486259 125.175064,76.024765 
z"/>
<path fill="#71863A" opacity="1.000000" stroke="none" 
	d="
M124.172989,74.027756 
	C124.306847,74.042580 124.575729,74.250641 124.856903,74.718567 
	C124.667503,74.736786 124.480446,74.484314 124.172989,74.027756 
z"/>
<path fill="#71863A" opacity="1.000000" stroke="none" 
	d="
M123.174271,72.025642 
	C123.309212,72.040192 123.579201,72.249001 123.861069,72.718758 
	C123.669846,72.737732 123.481972,72.484467 123.174271,72.025642 
z"/>
<path fill="#71863A" opacity="1.000000" stroke="none" 
	d="
M122.172791,70.028351 
	C122.304970,70.043694 122.572464,70.251167 122.853561,70.717163 
	C122.667015,70.734169 122.480659,70.482430 122.172791,70.028351 
z"/>
<path fill="#71863A" opacity="1.000000" stroke="none" 
	d="
M121.171425,68.031303 
	C121.301140,68.047539 121.566139,68.254112 121.845924,68.717010 
	C121.663490,68.732025 121.478828,68.481461 121.171425,68.031303 
z"/>
<path fill="#71863A" opacity="1.000000" stroke="none" 
	d="
M120.171890,66.029953 
	C120.302849,66.045731 120.569008,66.252716 120.849289,66.717056 
	C120.664726,66.733109 120.479286,66.482018 120.171890,66.029953 
z"/>
<path fill="#71863A" opacity="1.000000" stroke="none" 
	d="
M103.171783,31.032806 
	C103.296852,31.050749 103.557610,31.254818 103.834198,31.711056 
	C103.659706,31.722036 103.478851,31.473940 103.171783,31.032806 
z"/>
<path fill="#71863A" opacity="1.000000" stroke="none" 
	d="
M104.169739,33.037224 
	C104.298492,33.053032 104.562836,33.257156 104.842651,33.716084 
	C104.662086,33.731174 104.477821,33.482727 104.169739,33.037224 
z"/>
<path fill="#71863A" opacity="1.000000" stroke="none" 
	d="
M105.172119,35.029926 
	C105.302681,35.045834 105.568649,35.252693 105.849144,35.716675 
	C105.665321,35.732407 105.479942,35.481430 105.172119,35.029926 
z"/>
<path fill="#71863A" opacity="1.000000" stroke="none" 
	d="
M106.171494,37.028442 
	C106.301483,37.045013 106.565712,37.252098 106.842712,37.715340 
	C106.659538,37.729919 106.476295,37.479076 106.171494,37.028442 
z"/>
<path fill="#71863A" opacity="1.000000" stroke="none" 
	d="
M107.170219,39.036537 
	C107.300926,39.051430 107.567154,39.255600 107.847641,39.716011 
	C107.663887,39.732853 107.478493,39.484043 107.170219,39.036537 
z"/>
<path fill="#8A9B63" opacity="1.000000" stroke="none" 
	d="
M114.313011,46.901062 
	C114.505333,46.396442 115.056221,45.060970 115.612549,45.058697 
	C124.588791,45.022038 133.565735,45.154892 142.794586,45.598637 
	C133.589127,46.195477 124.131615,46.442989 114.313011,46.901062 
z"/>
</svg>