<svg width="132" height="134" viewBox="0 0 132 134" fill="none" xmlns="http://www.w3.org/2000/svg">
<mask id="path-1-outside-1_38_2" maskUnits="userSpaceOnUse" x="22" y="39" width="72" height="85" fill="black">
<rect fill="white" x="22" y="39" width="72" height="85"/>
<path d="M62.404 53.136V110.736C62.404 114.405 61.4227 117.221 59.46 119.184C57.5827 121.061 54.596 122 50.5 122H36.548C32.3667 122 29.2947 121.061 27.332 119.184C25.4547 117.221 24.516 114.405 24.516 110.736V53.136C24.516 49.4667 25.4547 46.6933 27.332 44.816C29.2947 42.8533 32.3667 41.872 36.548 41.872H50.5C54.596 41.872 57.5827 42.8533 59.46 44.816C61.4227 46.6933 62.404 49.4667 62.404 53.136ZM50.756 108.944V54.928C50.756 53.392 50.5 52.4107 49.988 51.984C49.5613 51.472 48.5373 51.216 46.916 51.216H40.004C38.5533 51.216 37.572 51.472 37.06 51.984C36.548 52.4107 36.292 53.392 36.292 54.928V108.944C36.292 110.395 36.548 111.376 37.06 111.888C37.572 112.4 38.5533 112.656 40.004 112.656H46.916C48.5373 112.656 49.5613 112.4 49.988 111.888C50.5 111.376 50.756 110.395 50.756 108.944ZM86.039 41.872V51.216H70.935V41.872H86.039ZM80.151 41.872H91.799V122H80.151V41.872Z"/>
</mask>
<path d="M62.404 53.136V110.736C62.404 114.405 61.4227 117.221 59.46 119.184C57.5827 121.061 54.596 122 50.5 122H36.548C32.3667 122 29.2947 121.061 27.332 119.184C25.4547 117.221 24.516 114.405 24.516 110.736V53.136C24.516 49.4667 25.4547 46.6933 27.332 44.816C29.2947 42.8533 32.3667 41.872 36.548 41.872H50.5C54.596 41.872 57.5827 42.8533 59.46 44.816C61.4227 46.6933 62.404 49.4667 62.404 53.136ZM50.756 108.944V54.928C50.756 53.392 50.5 52.4107 49.988 51.984C49.5613 51.472 48.5373 51.216 46.916 51.216H40.004C38.5533 51.216 37.572 51.472 37.06 51.984C36.548 52.4107 36.292 53.392 36.292 54.928V108.944C36.292 110.395 36.548 111.376 37.06 111.888C37.572 112.4 38.5533 112.656 40.004 112.656H46.916C48.5373 112.656 49.5613 112.4 49.988 111.888C50.5 111.376 50.756 110.395 50.756 108.944ZM86.039 41.872V51.216H70.935V41.872H86.039ZM80.151 41.872H91.799V122H80.151V41.872Z" fill="#dfb479"/>
<path d="M59.46 119.184L60.8742 120.598L60.8742 120.598L59.46 119.184ZM27.332 119.184L25.8867 120.566L25.9174 120.599L25.9496 120.629L27.332 119.184ZM27.332 44.816L25.9178 43.4018L25.9178 43.4018L27.332 44.816ZM59.46 44.816L58.0147 46.1984L58.0454 46.2306L58.0776 46.2613L59.46 44.816ZM49.988 51.984L48.4516 53.2644L48.568 53.404L48.7076 53.5204L49.988 51.984ZM37.06 51.984L38.3404 53.5204L38.4101 53.4624L38.4742 53.3982L37.06 51.984ZM49.988 111.888L48.5738 110.474L48.5096 110.538L48.4516 110.608L49.988 111.888ZM60.404 53.136V110.736H64.404V53.136H60.404ZM60.404 110.736C60.404 114.052 59.5245 116.291 58.0458 117.77L60.8742 120.598C63.3209 118.152 64.404 114.759 64.404 110.736H60.404ZM58.0458 117.77C56.7041 119.111 54.3469 120 50.5 120V124C54.8451 124 58.4612 123.011 60.8742 120.598L58.0458 117.77ZM50.5 120H36.548V124H50.5V120ZM36.548 120C32.6118 120 30.1472 119.109 28.7144 117.739L25.9496 120.629C28.4421 123.013 32.1216 124 36.548 124V120ZM28.7773 117.802C27.3659 116.326 26.516 114.075 26.516 110.736H22.516C22.516 114.736 23.5435 118.117 25.8867 120.566L28.7773 117.802ZM26.516 110.736V53.136H22.516V110.736H26.516ZM26.516 53.136C26.516 49.7904 27.3684 47.608 28.7462 46.2302L25.9178 43.4018C23.5409 45.7786 22.516 49.1429 22.516 53.136H26.516ZM28.7462 46.2302C30.1808 44.7957 32.6321 43.872 36.548 43.872V39.872C32.1012 39.872 28.4086 40.911 25.9178 43.4018L28.7462 46.2302ZM36.548 43.872H50.5V39.872H36.548V43.872ZM50.5 43.872C54.3255 43.872 56.6701 44.7927 58.0147 46.1984L60.9053 43.4335C58.4953 40.914 54.8665 39.872 50.5 39.872V43.872ZM58.0776 46.2613C59.5223 47.6432 60.404 49.8141 60.404 53.136H64.404C64.404 49.1192 63.323 45.7435 60.8424 43.3707L58.0776 46.2613ZM52.756 108.944V54.928H48.756V108.944H52.756ZM52.756 54.928C52.756 54.0674 52.6862 53.2519 52.4992 52.5351C52.3176 51.8387 51.9727 51.0345 51.2684 50.4476L48.7076 53.5204C48.5153 53.3602 48.5544 53.2599 48.6288 53.5448C48.6978 53.8094 48.756 54.2526 48.756 54.928H52.756ZM51.5244 50.7036C50.9223 49.9811 50.0859 49.6429 49.3851 49.4677C48.6538 49.2849 47.8129 49.216 46.916 49.216V53.216C47.6404 53.216 48.1222 53.2751 48.4149 53.3483C48.7381 53.4291 48.627 53.4749 48.4516 53.2644L51.5244 50.7036ZM46.916 49.216H40.004V53.216H46.916V49.216ZM40.004 49.216C38.4844 49.216 36.7661 49.4494 35.6458 50.5698L38.4742 53.3982C38.3977 53.4747 38.4071 53.4157 38.6848 53.3432C38.9568 53.2723 39.3826 53.216 40.004 53.216V49.216ZM35.7796 50.4476C35.0753 51.0345 34.7304 51.8387 34.5488 52.5351C34.3618 53.2519 34.292 54.0674 34.292 54.928H38.292C38.292 54.2526 38.3502 53.8094 38.4192 53.5448C38.4936 53.2599 38.5327 53.3602 38.3404 53.5204L35.7796 50.4476ZM34.292 54.928V108.944H38.292V54.928H34.292ZM34.292 108.944C34.292 110.464 34.5254 112.182 35.6458 113.302L38.4742 110.474C38.5507 110.55 38.4917 110.541 38.4192 110.263C38.3483 109.991 38.292 109.565 38.292 108.944H34.292ZM35.6458 113.302C36.7661 114.423 38.4844 114.656 40.004 114.656V110.656C39.3826 110.656 38.9568 110.6 38.6848 110.529C38.4071 110.456 38.3977 110.397 38.4742 110.474L35.6458 113.302ZM40.004 114.656H46.916V110.656H40.004V114.656ZM46.916 114.656C47.8129 114.656 48.6538 114.587 49.3851 114.404C50.0859 114.229 50.9223 113.891 51.5244 113.168L48.4516 110.608C48.627 110.397 48.7381 110.443 48.4149 110.524C48.1222 110.597 47.6404 110.656 46.916 110.656V114.656ZM51.4022 113.302C52.5226 112.182 52.756 110.464 52.756 108.944H48.756C48.756 109.565 48.6997 109.991 48.6288 110.263C48.5563 110.541 48.4973 110.55 48.5738 110.474L51.4022 113.302ZM86.039 41.872H88.039V39.872H86.039V41.872ZM86.039 51.216V53.216H88.039V51.216H86.039ZM70.935 51.216H68.935V53.216H70.935V51.216ZM70.935 41.872V39.872H68.935V41.872H70.935ZM80.151 41.872V39.872H78.151V41.872H80.151ZM91.799 41.872H93.799V39.872H91.799V41.872ZM91.799 122V124H93.799V122H91.799ZM80.151 122H78.151V124H80.151V122ZM84.039 41.872V51.216H88.039V41.872H84.039ZM86.039 49.216H70.935V53.216H86.039V49.216ZM72.935 51.216V41.872H68.935V51.216H72.935ZM70.935 43.872H86.039V39.872H70.935V43.872ZM80.151 43.872H91.799V39.872H80.151V43.872ZM89.799 41.872V122H93.799V41.872H89.799ZM91.799 120H80.151V124H91.799V120ZM82.151 122V41.872H78.151V122H82.151Z" fill="#dfb479" mask="url(#path-1-outside-1_38_2)"/>
</svg>
