<svg width="132" height="134" viewBox="0 0 132 134" fill="none" xmlns="http://www.w3.org/2000/svg">
<mask id="path-1-outside-1_38_3" maskUnits="userSpaceOnUse" x="22" y="39" width="88" height="85" fill="black">
<rect fill="white" x="22" y="39" width="88" height="85"/>
<path d="M62.404 53.136V110.736C62.404 114.405 61.4227 117.221 59.46 119.184C57.5827 121.061 54.596 122 50.5 122H36.548C32.3667 122 29.2947 121.061 27.332 119.184C25.4547 117.221 24.516 114.405 24.516 110.736V53.136C24.516 49.4667 25.4547 46.6933 27.332 44.816C29.2947 42.8533 32.3667 41.872 36.548 41.872H50.5C54.596 41.872 57.5827 42.8533 59.46 44.816C61.4227 46.6933 62.404 49.4667 62.404 53.136ZM50.756 108.944V54.928C50.756 53.392 50.5 52.4107 49.988 51.984C49.5613 51.472 48.5373 51.216 46.916 51.216H40.004C38.5533 51.216 37.572 51.472 37.06 51.984C36.548 52.4107 36.292 53.392 36.292 54.928V108.944C36.292 110.395 36.548 111.376 37.06 111.888C37.572 112.4 38.5533 112.656 40.004 112.656H46.916C48.5373 112.656 49.5613 112.4 49.988 111.888C50.5 111.376 50.756 110.395 50.756 108.944ZM83.095 54.928V67.984H71.575V53.136C71.575 49.4667 72.5137 46.6933 74.391 44.816C76.2683 42.8533 79.2977 41.872 83.479 41.872H94.487C98.6683 41.872 101.698 42.8533 103.575 44.816C105.538 46.6933 106.519 49.4667 106.519 53.136V61.2C106.519 64.6133 106.178 67.6427 105.495 70.288C104.812 72.848 103.66 75.664 102.039 78.736L84.759 112.656H107.031V122H71.703V113.04L91.287 76.176C92.7377 73.4453 93.6763 70.9707 94.103 68.752C94.615 66.448 94.871 63.8027 94.871 60.816V54.928C94.871 53.392 94.615 52.4107 94.103 51.984C93.6763 51.472 92.6523 51.216 91.031 51.216H86.935C85.399 51.216 84.375 51.472 83.863 51.984C83.351 52.4107 83.095 53.392 83.095 54.928Z"/>
</mask>
<path d="M62.404 53.136V110.736C62.404 114.405 61.4227 117.221 59.46 119.184C57.5827 121.061 54.596 122 50.5 122H36.548C32.3667 122 29.2947 121.061 27.332 119.184C25.4547 117.221 24.516 114.405 24.516 110.736V53.136C24.516 49.4667 25.4547 46.6933 27.332 44.816C29.2947 42.8533 32.3667 41.872 36.548 41.872H50.5C54.596 41.872 57.5827 42.8533 59.46 44.816C61.4227 46.6933 62.404 49.4667 62.404 53.136ZM50.756 108.944V54.928C50.756 53.392 50.5 52.4107 49.988 51.984C49.5613 51.472 48.5373 51.216 46.916 51.216H40.004C38.5533 51.216 37.572 51.472 37.06 51.984C36.548 52.4107 36.292 53.392 36.292 54.928V108.944C36.292 110.395 36.548 111.376 37.06 111.888C37.572 112.4 38.5533 112.656 40.004 112.656H46.916C48.5373 112.656 49.5613 112.4 49.988 111.888C50.5 111.376 50.756 110.395 50.756 108.944ZM83.095 54.928V67.984H71.575V53.136C71.575 49.4667 72.5137 46.6933 74.391 44.816C76.2683 42.8533 79.2977 41.872 83.479 41.872H94.487C98.6683 41.872 101.698 42.8533 103.575 44.816C105.538 46.6933 106.519 49.4667 106.519 53.136V61.2C106.519 64.6133 106.178 67.6427 105.495 70.288C104.812 72.848 103.66 75.664 102.039 78.736L84.759 112.656H107.031V122H71.703V113.04L91.287 76.176C92.7377 73.4453 93.6763 70.9707 94.103 68.752C94.615 66.448 94.871 63.8027 94.871 60.816V54.928C94.871 53.392 94.615 52.4107 94.103 51.984C93.6763 51.472 92.6523 51.216 91.031 51.216H86.935C85.399 51.216 84.375 51.472 83.863 51.984C83.351 52.4107 83.095 53.392 83.095 54.928Z" fill="#dfb479"/>
<path d="M59.46 119.184L60.8742 120.598L60.8742 120.598L59.46 119.184ZM27.332 119.184L25.8867 120.566L25.9174 120.599L25.9496 120.629L27.332 119.184ZM27.332 44.816L25.9178 43.4018L25.9178 43.4018L27.332 44.816ZM59.46 44.816L58.0147 46.1984L58.0454 46.2306L58.0776 46.2613L59.46 44.816ZM49.988 51.984L48.4516 53.2644L48.568 53.404L48.7076 53.5204L49.988 51.984ZM37.06 51.984L38.3404 53.5204L38.4101 53.4624L38.4742 53.3982L37.06 51.984ZM49.988 111.888L48.5738 110.474L48.5096 110.538L48.4516 110.608L49.988 111.888ZM60.404 53.136V110.736H64.404V53.136H60.404ZM60.404 110.736C60.404 114.052 59.5245 116.291 58.0458 117.77L60.8742 120.598C63.3209 118.152 64.404 114.759 64.404 110.736H60.404ZM58.0458 117.77C56.7041 119.111 54.3469 120 50.5 120V124C54.8451 124 58.4612 123.011 60.8742 120.598L58.0458 117.77ZM50.5 120H36.548V124H50.5V120ZM36.548 120C32.6118 120 30.1472 119.109 28.7144 117.739L25.9496 120.629C28.4421 123.013 32.1216 124 36.548 124V120ZM28.7773 117.802C27.3659 116.326 26.516 114.075 26.516 110.736H22.516C22.516 114.736 23.5435 118.117 25.8867 120.566L28.7773 117.802ZM26.516 110.736V53.136H22.516V110.736H26.516ZM26.516 53.136C26.516 49.7904 27.3684 47.608 28.7462 46.2302L25.9178 43.4018C23.5409 45.7786 22.516 49.1429 22.516 53.136H26.516ZM28.7462 46.2302C30.1808 44.7957 32.6321 43.872 36.548 43.872V39.872C32.1012 39.872 28.4086 40.911 25.9178 43.4018L28.7462 46.2302ZM36.548 43.872H50.5V39.872H36.548V43.872ZM50.5 43.872C54.3255 43.872 56.6701 44.7927 58.0147 46.1984L60.9053 43.4335C58.4953 40.914 54.8665 39.872 50.5 39.872V43.872ZM58.0776 46.2613C59.5223 47.6432 60.404 49.8141 60.404 53.136H64.404C64.404 49.1192 63.323 45.7435 60.8424 43.3707L58.0776 46.2613ZM52.756 108.944V54.928H48.756V108.944H52.756ZM52.756 54.928C52.756 54.0674 52.6862 53.2519 52.4992 52.5351C52.3176 51.8387 51.9727 51.0345 51.2684 50.4476L48.7076 53.5204C48.5153 53.3602 48.5544 53.2599 48.6288 53.5448C48.6978 53.8094 48.756 54.2526 48.756 54.928H52.756ZM51.5244 50.7036C50.9223 49.9811 50.0859 49.6429 49.3851 49.4677C48.6538 49.2849 47.8129 49.216 46.916 49.216V53.216C47.6404 53.216 48.1222 53.2751 48.4149 53.3483C48.7381 53.4291 48.627 53.4749 48.4516 53.2644L51.5244 50.7036ZM46.916 49.216H40.004V53.216H46.916V49.216ZM40.004 49.216C38.4844 49.216 36.7661 49.4494 35.6458 50.5698L38.4742 53.3982C38.3977 53.4747 38.4071 53.4157 38.6848 53.3432C38.9568 53.2723 39.3826 53.216 40.004 53.216V49.216ZM35.7796 50.4476C35.0753 51.0345 34.7304 51.8387 34.5488 52.5351C34.3618 53.2519 34.292 54.0674 34.292 54.928H38.292C38.292 54.2526 38.3502 53.8094 38.4192 53.5448C38.4936 53.2599 38.5327 53.3602 38.3404 53.5204L35.7796 50.4476ZM34.292 54.928V108.944H38.292V54.928H34.292ZM34.292 108.944C34.292 110.464 34.5254 112.182 35.6458 113.302L38.4742 110.474C38.5507 110.55 38.4917 110.541 38.4192 110.263C38.3483 109.991 38.292 109.565 38.292 108.944H34.292ZM35.6458 113.302C36.7661 114.423 38.4844 114.656 40.004 114.656V110.656C39.3826 110.656 38.9568 110.6 38.6848 110.529C38.4071 110.456 38.3977 110.397 38.4742 110.474L35.6458 113.302ZM40.004 114.656H46.916V110.656H40.004V114.656ZM46.916 114.656C47.8129 114.656 48.6538 114.587 49.3851 114.404C50.0859 114.229 50.9223 113.891 51.5244 113.168L48.4516 110.608C48.627 110.397 48.7381 110.443 48.4149 110.524C48.1222 110.597 47.6404 110.656 46.916 110.656V114.656ZM51.4022 113.302C52.5226 112.182 52.756 110.464 52.756 108.944H48.756C48.756 109.565 48.6997 109.991 48.6288 110.263C48.5563 110.541 48.4973 110.55 48.5738 110.474L51.4022 113.302ZM83.095 67.984V69.984H85.095V67.984H83.095ZM71.575 67.984H69.575V69.984H71.575V67.984ZM74.391 44.816L75.8052 46.2302L75.8209 46.2145L75.8363 46.1984L74.391 44.816ZM103.575 44.816L102.13 46.1984L102.16 46.2306L102.193 46.2613L103.575 44.816ZM105.495 70.288L107.427 70.8033L107.43 70.7955L107.432 70.7878L105.495 70.288ZM102.039 78.736L100.27 77.8025L100.263 77.8153L100.257 77.8281L102.039 78.736ZM84.759 112.656L82.9769 111.748L81.4956 114.656H84.759V112.656ZM107.031 112.656H109.031V110.656H107.031V112.656ZM107.031 122V124H109.031V122H107.031ZM71.703 122H69.703V124H71.703V122ZM71.703 113.04L69.9368 112.102L69.703 112.542V113.04H71.703ZM91.287 76.176L89.5208 75.2377L89.5208 75.2377L91.287 76.176ZM94.103 68.752L92.1506 68.3181L92.1444 68.3461L92.139 68.3743L94.103 68.752ZM94.103 51.984L92.5666 53.2644L92.683 53.404L92.8226 53.5204L94.103 51.984ZM83.863 51.984L85.1434 53.5204L85.2131 53.4624L85.2772 53.3982L83.863 51.984ZM81.095 54.928V67.984H85.095V54.928H81.095ZM83.095 65.984H71.575V69.984H83.095V65.984ZM73.575 67.984V53.136H69.575V67.984H73.575ZM73.575 53.136C73.575 49.7904 74.4274 47.608 75.8052 46.2302L72.9768 43.4018C70.5999 45.7786 69.575 49.1429 69.575 53.136H73.575ZM75.8363 46.1984C77.1743 44.7996 79.5535 43.872 83.479 43.872V39.872C79.0418 39.872 75.3624 40.9071 72.9457 43.4335L75.8363 46.1984ZM83.479 43.872H94.487V39.872H83.479V43.872ZM94.487 43.872C98.4125 43.872 100.792 44.7996 102.13 46.1984L105.02 43.4335C102.604 40.9071 98.9242 39.872 94.487 39.872V43.872ZM102.193 46.2613C103.637 47.6432 104.519 49.8141 104.519 53.136H108.519C108.519 49.1192 107.438 45.7435 104.957 43.3707L102.193 46.2613ZM104.519 53.136V61.2H108.519V53.136H104.519ZM104.519 61.2C104.519 64.4847 104.19 67.3408 103.558 69.7882L107.432 70.7878C108.165 67.9446 108.519 64.742 108.519 61.2H104.519ZM103.563 69.7727C102.928 72.1508 101.842 74.8248 100.27 77.8025L103.808 79.6695C105.479 76.5032 106.696 73.5452 107.427 70.8033L103.563 69.7727ZM100.257 77.8281L82.9769 111.748L86.5411 113.564L103.821 79.6438L100.257 77.8281ZM84.759 114.656H107.031V110.656H84.759V114.656ZM105.031 112.656V122H109.031V112.656H105.031ZM107.031 120H71.703V124H107.031V120ZM73.703 122V113.04H69.703V122H73.703ZM73.4692 113.978L93.0532 77.1143L89.5208 75.2377L69.9368 112.102L73.4692 113.978ZM93.0532 77.1143C94.5655 74.2677 95.5917 71.6011 96.067 69.1297L92.139 68.3743C91.7609 70.3402 90.9098 72.623 89.5208 75.2377L93.0532 77.1143ZM96.0554 69.1859C96.6061 66.7077 96.871 63.9121 96.871 60.816H92.871C92.871 63.6933 92.6239 66.1883 92.1506 68.3181L96.0554 69.1859ZM96.871 60.816V54.928H92.871V60.816H96.871ZM96.871 54.928C96.871 54.0674 96.8012 53.2519 96.6142 52.5351C96.4326 51.8387 96.0877 51.0345 95.3834 50.4475L92.8226 53.5204C92.6303 53.3602 92.6694 53.2599 92.7438 53.5448C92.8128 53.8094 92.871 54.2526 92.871 54.928H96.871ZM95.6394 50.7036C95.0373 49.9811 94.2009 49.6429 93.5001 49.4677C92.7688 49.2849 91.9279 49.216 91.031 49.216V53.216C91.7554 53.216 92.2372 53.2751 92.5299 53.3483C92.8531 53.4291 92.742 53.4749 92.5666 53.2644L95.6394 50.7036ZM91.031 49.216H86.935V53.216H91.031V49.216ZM86.935 49.216C86.0705 49.216 85.2545 49.2866 84.5299 49.4677C83.8174 49.6458 83.0525 49.966 82.4488 50.5698L85.2772 53.3982C85.1855 53.4899 85.1886 53.4262 85.5001 53.3483C85.7995 53.2734 86.2635 53.216 86.935 53.216V49.216ZM82.5826 50.4475C81.8783 51.0345 81.5334 51.8387 81.3518 52.5351C81.1648 53.2519 81.095 54.0674 81.095 54.928H85.095C85.095 54.2526 85.1532 53.8094 85.2222 53.5448C85.2966 53.2599 85.3357 53.3602 85.1434 53.5204L82.5826 50.4475Z" fill="#dfb479" mask="url(#path-1-outside-1_38_3)"/>
</svg>
