<svg width="132" height="134" viewBox="0 0 132 134" fill="none" xmlns="http://www.w3.org/2000/svg">
<mask id="path-1-outside-1_18_4" maskUnits="userSpaceOnUse" x="22" y="39" width="88" height="85" fill="black">
<rect fill="white" x="22" y="39" width="88" height="85"/>
<path d="M62.404 53.136V110.736C62.404 114.405 61.4227 117.221 59.46 119.184C57.5827 121.061 54.596 122 50.5 122H36.548C32.3667 122 29.2947 121.061 27.332 119.184C25.4547 117.221 24.516 114.405 24.516 110.736V53.136C24.516 49.4667 25.4547 46.6933 27.332 44.816C29.2947 42.8533 32.3667 41.872 36.548 41.872H50.5C54.596 41.872 57.5827 42.8533 59.46 44.816C61.4227 46.6933 62.404 49.4667 62.404 53.136ZM50.756 108.944V54.928C50.756 53.392 50.5 52.4107 49.988 51.984C49.5613 51.472 48.5373 51.216 46.916 51.216H40.004C38.5533 51.216 37.572 51.472 37.06 51.984C36.548 52.4107 36.292 53.392 36.292 54.928V108.944C36.292 110.395 36.548 111.376 37.06 111.888C37.572 112.4 38.5533 112.656 40.004 112.656H46.916C48.5373 112.656 49.5613 112.4 49.988 111.888C50.5 111.376 50.756 110.395 50.756 108.944ZM83.607 54.928V66.96H72.087V53.136C72.087 49.4667 73.0257 46.6933 74.903 44.816C76.8657 42.8533 79.895 41.872 83.991 41.872H95.767C99.9483 41.872 102.978 42.8533 104.855 44.816C106.818 46.6933 107.799 49.4667 107.799 53.136V73.36C107.799 75.5787 107.372 77.3707 106.519 78.736C105.666 80.016 104.428 80.8693 102.807 81.296C104.428 81.7227 105.666 82.5333 106.519 83.728C107.372 84.9227 107.799 86.5867 107.799 88.72V110.736C107.799 114.405 106.818 117.221 104.855 119.184C102.978 121.061 99.9483 122 95.767 122H83.991C79.895 122 76.8657 121.061 74.903 119.184C73.0257 117.221 72.087 114.405 72.087 110.736V97.04H83.607V108.944C83.607 110.395 83.863 111.376 84.375 111.888C84.887 112.4 85.911 112.656 87.447 112.656H92.439C94.0603 112.656 95.0843 112.4 95.511 111.888C96.023 111.376 96.279 110.395 96.279 108.944V89.744C96.279 88.208 96.023 87.2267 95.511 86.8C95.0843 86.288 94.0603 86.032 92.439 86.032H82.839V76.816H92.439C94.0603 76.816 95.0843 76.56 95.511 76.048C96.023 75.536 96.279 74.5547 96.279 73.104V54.928C96.279 53.392 96.023 52.4107 95.511 51.984C95.0843 51.472 94.0603 51.216 92.439 51.216H87.447C85.911 51.216 84.887 51.472 84.375 51.984C83.863 52.4107 83.607 53.392 83.607 54.928Z"/>
</mask>
<path d="M59.46 119.184L60.8742 120.598L60.8742 120.598L59.46 119.184ZM27.332 119.184L25.8867 120.566L25.9174 120.599L25.9496 120.629L27.332 119.184ZM27.332 44.816L25.9178 43.4018L25.9178 43.4018L27.332 44.816ZM59.46 44.816L58.0147 46.1984L58.0454 46.2306L58.0776 46.2613L59.46 44.816ZM49.988 51.984L48.4516 53.2644L48.568 53.404L48.7076 53.5204L49.988 51.984ZM37.06 51.984L38.3404 53.5204L38.4101 53.4624L38.4742 53.3982L37.06 51.984ZM49.988 111.888L48.5738 110.474L48.5096 110.538L48.4516 110.608L49.988 111.888ZM60.404 53.136V110.736H64.404V53.136H60.404ZM60.404 110.736C60.404 114.052 59.5245 116.291 58.0458 117.77L60.8742 120.598C63.3209 118.152 64.404 114.759 64.404 110.736H60.404ZM58.0458 117.77C56.7041 119.111 54.3469 120 50.5 120V124C54.8451 124 58.4612 123.011 60.8742 120.598L58.0458 117.77ZM50.5 120H36.548V124H50.5V120ZM36.548 120C32.6118 120 30.1472 119.109 28.7144 117.739L25.9496 120.629C28.4421 123.013 32.1216 124 36.548 124V120ZM28.7773 117.802C27.3659 116.326 26.516 114.075 26.516 110.736H22.516C22.516 114.736 23.5435 118.117 25.8867 120.566L28.7773 117.802ZM26.516 110.736V53.136H22.516V110.736H26.516ZM26.516 53.136C26.516 49.7904 27.3684 47.608 28.7462 46.2302L25.9178 43.4018C23.5409 45.7786 22.516 49.1429 22.516 53.136H26.516ZM28.7462 46.2302C30.1808 44.7957 32.6321 43.872 36.548 43.872V39.872C32.1012 39.872 28.4086 40.911 25.9178 43.4018L28.7462 46.2302ZM36.548 43.872H50.5V39.872H36.548V43.872ZM50.5 43.872C54.3255 43.872 56.6701 44.7927 58.0147 46.1984L60.9053 43.4335C58.4953 40.914 54.8665 39.872 50.5 39.872V43.872ZM58.0776 46.2613C59.5223 47.6432 60.404 49.8141 60.404 53.136H64.404C64.404 49.1192 63.323 45.7435 60.8424 43.3707L58.0776 46.2613ZM52.756 108.944V54.928H48.756V108.944H52.756ZM52.756 54.928C52.756 54.0674 52.6862 53.2519 52.4992 52.5351C52.3176 51.8387 51.9727 51.0345 51.2684 50.4476L48.7076 53.5204C48.5153 53.3602 48.5544 53.2599 48.6288 53.5448C48.6978 53.8094 48.756 54.2526 48.756 54.928H52.756ZM51.5244 50.7036C50.9223 49.9811 50.0859 49.6429 49.3851 49.4677C48.6538 49.2849 47.8129 49.216 46.916 49.216V53.216C47.6404 53.216 48.1222 53.2751 48.4149 53.3483C48.7381 53.4291 48.627 53.4749 48.4516 53.2644L51.5244 50.7036ZM46.916 49.216H40.004V53.216H46.916V49.216ZM40.004 49.216C38.4844 49.216 36.7661 49.4494 35.6458 50.5698L38.4742 53.3982C38.3977 53.4747 38.4071 53.4157 38.6848 53.3432C38.9568 53.2723 39.3826 53.216 40.004 53.216V49.216ZM35.7796 50.4476C35.0753 51.0345 34.7304 51.8387 34.5488 52.5351C34.3618 53.2519 34.292 54.0674 34.292 54.928H38.292C38.292 54.2526 38.3502 53.8094 38.4192 53.5448C38.4936 53.2599 38.5327 53.3602 38.3404 53.5204L35.7796 50.4476ZM34.292 54.928V108.944H38.292V54.928H34.292ZM34.292 108.944C34.292 110.464 34.5254 112.182 35.6458 113.302L38.4742 110.474C38.5507 110.55 38.4917 110.541 38.4192 110.263C38.3483 109.991 38.292 109.565 38.292 108.944H34.292ZM35.6458 113.302C36.7661 114.423 38.4844 114.656 40.004 114.656V110.656C39.3826 110.656 38.9568 110.6 38.6848 110.529C38.4071 110.456 38.3977 110.397 38.4742 110.474L35.6458 113.302ZM40.004 114.656H46.916V110.656H40.004V114.656ZM46.916 114.656C47.8129 114.656 48.6538 114.587 49.3851 114.404C50.0859 114.229 50.9223 113.891 51.5244 113.168L48.4516 110.608C48.627 110.397 48.7381 110.443 48.4149 110.524C48.1222 110.597 47.6404 110.656 46.916 110.656V114.656ZM51.4022 113.302C52.5226 112.182 52.756 110.464 52.756 108.944H48.756C48.756 109.565 48.6997 109.991 48.6288 110.263C48.5563 110.541 48.4973 110.55 48.5738 110.474L51.4022 113.302ZM83.607 66.96V68.96H85.607V66.96H83.607ZM72.087 66.96H70.087V68.96H72.087V66.96ZM74.903 44.816L73.4888 43.4018L73.4888 43.4018L74.903 44.816ZM104.855 44.816L103.41 46.1984L103.44 46.2306L103.473 46.2613L104.855 44.816ZM106.519 78.736L108.183 79.8454L108.199 79.8209L108.215 79.796L106.519 78.736ZM102.807 81.296L102.298 79.3618L94.9482 81.296L102.298 83.2301L102.807 81.296ZM106.519 83.728L104.892 84.8905L104.892 84.8905L106.519 83.728ZM104.855 119.184L106.269 120.598L106.269 120.598L104.855 119.184ZM74.903 119.184L73.4577 120.566L73.4884 120.599L73.5206 120.629L74.903 119.184ZM72.087 97.04V95.04H70.087V97.04H72.087ZM83.607 97.04H85.607V95.04H83.607V97.04ZM84.375 111.888L82.9608 113.302L82.9608 113.302L84.375 111.888ZM95.511 111.888L94.0968 110.474L94.0326 110.538L93.9746 110.608L95.511 111.888ZM95.511 86.8L93.9746 88.0804L94.091 88.22L94.2306 88.3364L95.511 86.8ZM82.839 86.032H80.839V88.032H82.839V86.032ZM82.839 76.816V74.816H80.839V76.816H82.839ZM95.511 76.048L94.0968 74.6338L94.0326 74.6979L93.9746 74.7676L95.511 76.048ZM95.511 51.984L93.9746 53.2644L94.091 53.404L94.2306 53.5204L95.511 51.984ZM84.375 51.984L85.6554 53.5204L85.7251 53.4624L85.7892 53.3982L84.375 51.984ZM81.607 54.928V66.96H85.607V54.928H81.607ZM83.607 64.96H72.087V68.96H83.607V64.96ZM74.087 66.96V53.136H70.087V66.96H74.087ZM74.087 53.136C74.087 49.7904 74.9394 47.608 76.3172 46.2302L73.4888 43.4018C71.1119 45.7786 70.087 49.1429 70.087 53.136H74.087ZM76.3172 46.2302C77.7584 44.789 80.1745 43.872 83.991 43.872V39.872C79.6155 39.872 75.9729 40.9176 73.4888 43.4018L76.3172 46.2302ZM83.991 43.872H95.767V39.872H83.991V43.872ZM95.767 43.872C99.6925 43.872 102.072 44.7996 103.41 46.1984L106.3 43.4335C103.884 40.9071 100.204 39.872 95.767 39.872V43.872ZM103.473 46.2613C104.917 47.6432 105.799 49.8141 105.799 53.136H109.799C109.799 49.1192 108.718 45.7435 106.237 43.3707L103.473 46.2613ZM105.799 53.136V73.36H109.799V53.136H105.799ZM105.799 73.36C105.799 75.3402 105.416 76.7272 104.823 77.676L108.215 79.796C109.329 78.0142 109.799 75.8171 109.799 73.36H105.799ZM104.855 77.6266C104.298 78.4618 103.492 79.0475 102.298 79.3618L103.316 83.2301C105.364 82.6911 107.033 81.5702 108.183 79.8454L104.855 77.6266ZM102.298 83.2301C103.536 83.5558 104.348 84.1291 104.892 84.8905L108.146 82.5655C106.984 80.9376 105.321 79.8895 103.316 79.3618L102.298 83.2301ZM104.892 84.8905C105.415 85.6237 105.799 86.8228 105.799 88.72H109.799C109.799 86.3505 109.329 84.2216 108.146 82.5655L104.892 84.8905ZM105.799 88.72V110.736H109.799V88.72H105.799ZM105.799 110.736C105.799 114.052 104.919 116.291 103.441 117.77L106.269 120.598C108.716 118.152 109.799 114.759 109.799 110.736H105.799ZM103.441 117.77C102.106 119.105 99.7133 120 95.767 120V124C100.183 124 103.85 123.018 106.269 120.598L103.441 117.77ZM95.767 120H83.991V124H95.767V120ZM83.991 120C80.1537 120 77.7247 119.115 76.2854 117.739L73.5206 120.629C76.0066 123.007 79.6363 124 83.991 124V120ZM76.3483 117.802C74.9369 116.326 74.087 114.075 74.087 110.736H70.087C70.087 114.736 71.1145 118.117 73.4577 120.566L76.3483 117.802ZM74.087 110.736V97.04H70.087V110.736H74.087ZM72.087 99.04H83.607V95.04H72.087V99.04ZM81.607 97.04V108.944H85.607V97.04H81.607ZM81.607 108.944C81.607 110.464 81.8404 112.182 82.9608 113.302L85.7892 110.474C85.8657 110.55 85.8067 110.541 85.7342 110.263C85.6633 109.991 85.607 109.565 85.607 108.944H81.607ZM82.9608 113.302C83.5645 113.906 84.3294 114.226 85.0419 114.404C85.7665 114.585 86.5825 114.656 87.447 114.656V110.656C86.7755 110.656 86.3115 110.599 86.0121 110.524C85.7006 110.446 85.6975 110.382 85.7892 110.474L82.9608 113.302ZM87.447 114.656H92.439V110.656H87.447V114.656ZM92.439 114.656C93.3359 114.656 94.1768 114.587 94.9081 114.404C95.6089 114.229 96.4453 113.891 97.0474 113.168L93.9746 110.608C94.15 110.397 94.2611 110.443 93.9379 110.524C93.6452 110.597 93.1634 110.656 92.439 110.656V114.656ZM96.9252 113.302C98.0456 112.182 98.279 110.464 98.279 108.944H94.279C94.279 109.565 94.2227 109.991 94.1518 110.263C94.0793 110.541 94.0203 110.55 94.0968 110.474L96.9252 113.302ZM98.279 108.944V89.744H94.279V108.944H98.279ZM98.279 89.744C98.279 88.8834 98.2092 88.0679 98.0222 87.3512C97.8406 86.6547 97.4957 85.8505 96.7914 85.2636L94.2306 88.3364C94.0383 88.1762 94.0774 88.0759 94.1518 88.3608C94.2208 88.6254 94.279 89.0686 94.279 89.744H98.279ZM97.0474 85.5196C96.4453 84.7971 95.6089 84.4589 94.9081 84.2837C94.1768 84.1009 93.3359 84.032 92.439 84.032V88.032C93.1634 88.032 93.6452 88.0911 93.9379 88.1643C94.2611 88.2451 94.15 88.2909 93.9746 88.0804L97.0474 85.5196ZM92.439 84.032H82.839V88.032H92.439V84.032ZM84.839 86.032V76.816H80.839V86.032H84.839ZM82.839 78.816H92.439V74.816H82.839V78.816ZM92.439 78.816C93.3359 78.816 94.1768 78.7471 94.9081 78.5643C95.6089 78.3891 96.4453 78.0509 97.0474 77.3284L93.9746 74.7676C94.15 74.5571 94.2611 74.6029 93.9379 74.6837C93.6452 74.7569 93.1634 74.816 92.439 74.816V78.816ZM96.9252 77.4622C98.0456 76.3419 98.279 74.6236 98.279 73.104H94.279C94.279 73.7254 94.2227 74.1512 94.1518 74.4232C94.0793 74.7009 94.0203 74.7103 94.0968 74.6338L96.9252 77.4622ZM98.279 73.104V54.928H94.279V73.104H98.279ZM98.279 54.928C98.279 54.0674 98.2092 53.2519 98.0222 52.5351C97.8406 51.8387 97.4957 51.0345 96.7914 50.4476L94.2306 53.5204C94.0383 53.3602 94.0774 53.2599 94.1518 53.5448C94.2208 53.8094 94.279 54.2526 94.279 54.928H98.279ZM97.0474 50.7036C96.4453 49.9811 95.6089 49.6429 94.9081 49.4677C94.1768 49.2849 93.3359 49.216 92.439 49.216V53.216C93.1634 53.216 93.6452 53.2751 93.9379 53.3483C94.2611 53.4291 94.15 53.4749 93.9746 53.2644L97.0474 50.7036ZM92.439 49.216H87.447V53.216H92.439V49.216ZM87.447 49.216C86.5825 49.216 85.7665 49.2866 85.0419 49.4677C84.3294 49.6458 83.5645 49.966 82.9608 50.5698L85.7892 53.3982C85.6975 53.4899 85.7006 53.4262 86.0121 53.3483C86.3115 53.2734 86.7755 53.216 87.447 53.216V49.216ZM83.0946 50.4476C82.3903 51.0345 82.0454 51.8387 81.8638 52.5351C81.6768 53.2519 81.607 54.0674 81.607 54.928H85.607C85.607 54.2526 85.6652 53.8094 85.7342 53.5448C85.8086 53.2599 85.8477 53.3602 85.6554 53.5204L83.0946 50.4476Z" fill="#dfb479" mask="url(#path-1-outside-1_18_4)"/>
</svg>
